<svg width="795" height="95" viewBox="0 0 795 95" fill="none" xmlns="http://www.w3.org/2000/svg">
<path d="M26.7669 93H0.13339L30.1405 2.09091H63.8763L93.8834 93H67.2499L47.3635 27.1264H46.6533L26.7669 93ZM21.7953 57.1335H71.8663V75.5994H21.7953V57.1335ZM183.239 36.1818H158.203C158.026 34.1103 157.552 32.2312 156.783 30.5444C156.043 28.8576 155.007 27.4075 153.676 26.1942C152.374 24.9513 150.79 24.0044 148.926 23.3533C147.062 22.6727 144.946 22.3324 142.578 22.3324C138.435 22.3324 134.929 23.3385 132.058 25.3509C129.217 27.3632 127.057 30.2485 125.577 34.0067C124.127 37.765 123.402 42.2779 123.402 47.5455C123.402 53.1089 124.142 57.7698 125.622 61.5281C127.131 65.2567 129.306 68.0681 132.147 69.962C134.988 71.8263 138.406 72.7585 142.401 72.7585C144.679 72.7585 146.721 72.4774 148.527 71.9151C150.332 71.3233 151.9 70.4799 153.232 69.3849C154.563 68.29 155.644 66.9731 156.472 65.4343C157.33 63.8659 157.907 62.1051 158.203 60.152L183.239 60.3295C182.943 64.1766 181.863 68.0977 179.998 72.0927C178.134 76.0581 175.486 79.7276 172.053 83.1012C168.65 86.4452 164.433 89.1381 159.402 91.18C154.371 93.2219 148.527 94.2429 141.868 94.2429C133.523 94.2429 126.036 92.4525 119.407 88.8718C112.808 85.2911 107.585 80.0236 103.738 73.0692C99.9203 66.1149 98.0116 57.607 98.0116 47.5455C98.0116 37.4247 99.9647 28.902 103.871 21.9773C107.777 15.023 113.045 9.77024 119.674 6.2191C126.302 2.63837 133.701 0.848008 141.868 0.848008C147.609 0.848008 152.891 1.63222 157.715 3.20063C162.539 4.76905 166.77 7.0625 170.41 10.081C174.05 13.0698 176.98 16.7541 179.199 21.1339C181.419 25.5136 182.765 30.5296 183.239 36.1818ZM279.308 36.1818H254.273C254.095 34.1103 253.622 32.2312 252.852 30.5444C252.112 28.8576 251.077 27.4075 249.745 26.1942C248.443 24.9513 246.86 24.0044 244.995 23.3533C243.131 22.6727 241.015 22.3324 238.648 22.3324C234.505 22.3324 230.998 23.3385 228.127 25.3509C225.287 27.3632 223.126 30.2485 221.647 34.0067C220.197 37.765 219.472 42.2779 219.472 47.5455C219.472 53.1089 220.211 57.7698 221.691 61.5281C223.2 65.2567 225.375 68.0681 228.216 69.962C231.057 71.8263 234.475 72.7585 238.47 72.7585C240.749 72.7585 242.791 72.4774 244.596 71.9151C246.401 71.3233 247.969 70.4799 249.301 69.3849C250.633 68.29 251.713 66.9731 252.542 65.4343C253.4 63.8659 253.977 62.1051 254.273 60.152L279.308 60.3295C279.012 64.1766 277.932 68.0977 276.068 72.0927C274.203 76.0581 271.555 79.7276 268.122 83.1012C264.719 86.4452 260.502 89.1381 255.471 91.18C250.44 93.2219 244.596 94.2429 237.937 94.2429C229.592 94.2429 222.105 92.4525 215.477 88.8718C208.877 85.2911 203.654 80.0236 199.807 73.0692C195.99 66.1149 194.081 57.607 194.081 47.5455C194.081 37.4247 196.034 28.902 199.94 21.9773C203.847 15.023 209.114 9.77024 215.743 6.2191C222.372 2.63837 229.77 0.848008 237.937 0.848008C243.678 0.848008 248.961 1.63222 253.784 3.20063C258.608 4.76905 262.84 7.0625 266.48 10.081C270.12 13.0698 273.049 16.7541 275.269 21.1339C277.488 25.5136 278.835 30.5296 279.308 36.1818ZM290.505 93V2.09091H356.024V21.9773H315.186V37.6023H352.65V57.4886H315.186V73.1136H355.846V93H290.505ZM417.27 30.5C417.033 27.5407 415.923 25.2325 413.941 23.5753C411.988 21.9181 409.013 21.0895 405.018 21.0895C402.473 21.0895 400.387 21.4002 398.76 22.0217C397.162 22.6135 395.978 23.4273 395.208 24.4631C394.439 25.4988 394.039 26.6825 394.01 28.0142C393.951 29.1091 394.143 30.1005 394.587 30.9883C395.06 31.8465 395.8 32.6307 396.806 33.3409C397.813 34.0215 399.1 34.643 400.668 35.2053C402.237 35.7675 404.101 36.2706 406.261 36.7145L413.719 38.3125C418.749 39.3778 423.055 40.7835 426.636 42.5295C430.217 44.2754 433.146 46.3321 435.425 48.6996C437.704 51.0374 439.376 53.6712 440.441 56.6009C441.536 59.5305 442.098 62.7266 442.128 66.1889C442.098 72.1667 440.604 77.227 437.644 81.37C434.685 85.513 430.453 88.6647 424.949 90.8249C419.475 92.9852 412.89 94.0653 405.196 94.0653C397.295 94.0653 390.4 92.8964 384.511 90.5586C378.651 88.2208 374.094 84.6252 370.839 79.772C367.613 74.8892 365.986 68.6451 365.956 61.0398H389.393C389.541 63.8215 390.237 66.1593 391.48 68.0533C392.723 69.9472 394.469 71.3825 396.718 72.359C398.996 73.3356 401.704 73.8239 404.841 73.8239C407.475 73.8239 409.679 73.4983 411.455 72.8473C413.23 72.1963 414.577 71.2937 415.494 70.1396C416.412 68.9854 416.885 67.6686 416.915 66.1889C416.885 64.7981 416.426 63.5848 415.539 62.549C414.68 61.4837 413.26 60.5367 411.277 59.7081C409.295 58.8499 406.616 58.0509 403.243 57.3111L394.187 55.358C386.138 53.612 379.791 50.6971 375.144 46.6133C370.528 42.4999 368.235 36.892 368.264 29.7898C368.235 24.0192 369.773 18.9736 372.881 14.6531C376.017 10.3029 380.353 6.91453 385.887 4.48792C391.45 2.06131 397.827 0.848008 405.018 0.848008C412.357 0.848008 418.705 2.07611 424.061 4.53231C429.418 6.98852 433.546 10.4509 436.446 14.9194C439.376 19.3583 440.855 24.5518 440.885 30.5H417.27ZM500.522 30.5C500.285 27.5407 499.175 25.2325 497.193 23.5753C495.239 21.9181 492.265 21.0895 488.27 21.0895C485.725 21.0895 483.639 21.4002 482.011 22.0217C480.413 22.6135 479.23 23.4273 478.46 24.4631C477.691 25.4988 477.291 26.6825 477.262 28.0142C477.203 29.1091 477.395 30.1005 477.839 30.9883C478.312 31.8465 479.052 32.6307 480.058 33.3409C481.065 34.0215 482.352 34.643 483.92 35.2053C485.489 35.7675 487.353 36.2706 489.513 36.7145L496.971 38.3125C502.001 39.3778 506.307 40.7835 509.888 42.5295C513.469 44.2754 516.398 46.3321 518.677 48.6996C520.956 51.0374 522.628 53.6712 523.693 56.6009C524.788 59.5305 525.35 62.7266 525.38 66.1889C525.35 72.1667 523.856 77.227 520.896 81.37C517.937 85.513 513.705 88.6647 508.201 90.8249C502.726 92.9852 496.142 94.0653 488.448 94.0653C480.547 94.0653 473.652 92.8964 467.763 90.5586C461.903 88.2208 457.346 84.6252 454.091 79.772C450.865 74.8892 449.237 68.6451 449.208 61.0398H472.645C472.793 63.8215 473.489 66.1593 474.732 68.0533C475.975 69.9472 477.721 71.3825 479.97 72.359C482.248 73.3356 484.956 73.8239 488.093 73.8239C490.727 73.8239 492.931 73.4983 494.707 72.8473C496.482 72.1963 497.829 71.2937 498.746 70.1396C499.664 68.9854 500.137 67.6686 500.167 66.1889C500.137 64.7981 499.678 63.5848 498.791 62.549C497.932 61.4837 496.512 60.5367 494.529 59.7081C492.547 58.8499 489.868 58.0509 486.495 57.3111L477.439 55.358C469.39 53.612 463.043 50.6971 458.396 46.6133C453.78 42.4999 451.487 36.892 451.516 29.7898C451.487 24.0192 453.025 18.9736 456.133 14.6531C459.269 10.3029 463.605 6.91453 469.139 4.48792C474.702 2.06131 481.079 0.848008 488.27 0.848008C495.609 0.848008 501.957 2.07611 507.313 4.53231C512.67 6.98852 516.798 10.4509 519.698 14.9194C522.628 19.3583 524.107 24.5518 524.137 30.5H500.522ZM532.282 21.9773V2.09091H611.295V21.9773H583.951V93H559.626V21.9773H532.282ZM620.583 93V2.09091H659.824C666.571 2.09091 672.474 3.31901 677.535 5.77521C682.595 8.23141 686.531 11.7678 689.342 16.3842C692.154 21.0007 693.559 26.5346 693.559 32.9858C693.559 39.4962 692.109 44.9857 689.209 49.4542C686.339 53.9227 682.299 57.2963 677.091 59.5749C671.912 61.8536 665.86 62.9929 658.936 62.9929H635.498V43.8168H653.964C656.864 43.8168 659.335 43.4616 661.377 42.7514C663.449 42.0116 665.032 40.8427 666.127 39.2447C667.251 37.6467 667.814 35.5604 667.814 32.9858C667.814 30.3816 667.251 28.2657 666.127 26.6381C665.032 24.9809 663.449 23.7676 661.377 22.9982C659.335 22.1992 656.864 21.7997 653.964 21.7997H645.264V93H620.583ZM673.851 51.2741L696.578 93H669.767L647.572 51.2741H673.851ZM727.695 93H701.061L731.068 2.09091H764.804L794.811 93H768.178L748.291 27.1264H747.581L727.695 93ZM722.723 57.1335H772.794V75.5994H722.723V57.1335Z" fill="black"/>
</svg>
