<svg width="528" height="571" viewBox="0 0 528 571" fill="none" xmlns="http://www.w3.org/2000/svg">
<g filter="url(#filter0_i_2012_50)">
<path d="M19 19C80.216 19 80.216 119 141.432 119C202.648 119 202.648 19 263.864 19C325.08 19 325.352 119 386.568 119C447.784 119 447.784 19 509 19" stroke="#2CA9BC" stroke-width="37" stroke-linecap="round" stroke-linejoin="round"/>
</g>
<g filter="url(#filter1_i_2012_50)">
<path d="M20 454C81.0911 454 81.0911 552 142.182 552C203.273 552 203.273 454 264.364 454C325.455 454 325.727 552 386.818 552C447.909 552 447.909 454 509 454" stroke="#041116" stroke-width="37" stroke-linecap="round" stroke-linejoin="round"/>
</g>
<g filter="url(#filter2_i_2012_50)">
<path d="M20 238C81.0911 238 81.0911 335 142.182 335C203.273 335 203.273 238 264.364 238C325.455 238 325.727 335 386.818 335C447.909 335 447.909 238 509 238" stroke="#364659" stroke-width="37" stroke-linecap="round" stroke-linejoin="round"/>
</g>
<defs>
<filter id="filter0_i_2012_50" x="0.5" y="0.5" width="527" height="141" filterUnits="userSpaceOnUse" color-interpolation-filters="sRGB">
<feFlood flood-opacity="0" result="BackgroundImageFix"/>
<feBlend mode="normal" in="SourceGraphic" in2="BackgroundImageFix" result="shape"/>
<feColorMatrix in="SourceAlpha" type="matrix" values="0 0 0 0 0 0 0 0 0 0 0 0 0 0 0 0 0 0 127 0" result="hardAlpha"/>
<feOffset dy="4"/>
<feGaussianBlur stdDeviation="2"/>
<feComposite in2="hardAlpha" operator="arithmetic" k2="-1" k3="1"/>
<feColorMatrix type="matrix" values="0 0 0 0 0 0 0 0 0 0 0 0 0 0 0 0 0 0 0.25 0"/>
<feBlend mode="normal" in2="shape" result="effect1_innerShadow_2012_50"/>
</filter>
<filter id="filter1_i_2012_50" x="1.5" y="435.5" width="526" height="139" filterUnits="userSpaceOnUse" color-interpolation-filters="sRGB">
<feFlood flood-opacity="0" result="BackgroundImageFix"/>
<feBlend mode="normal" in="SourceGraphic" in2="BackgroundImageFix" result="shape"/>
<feColorMatrix in="SourceAlpha" type="matrix" values="0 0 0 0 0 0 0 0 0 0 0 0 0 0 0 0 0 0 127 0" result="hardAlpha"/>
<feOffset dy="4"/>
<feGaussianBlur stdDeviation="2"/>
<feComposite in2="hardAlpha" operator="arithmetic" k2="-1" k3="1"/>
<feColorMatrix type="matrix" values="0 0 0 0 0 0 0 0 0 0 0 0 0 0 0 0 0 0 0.25 0"/>
<feBlend mode="normal" in2="shape" result="effect1_innerShadow_2012_50"/>
</filter>
<filter id="filter2_i_2012_50" x="1.5" y="219.5" width="526" height="138" filterUnits="userSpaceOnUse" color-interpolation-filters="sRGB">
<feFlood flood-opacity="0" result="BackgroundImageFix"/>
<feBlend mode="normal" in="SourceGraphic" in2="BackgroundImageFix" result="shape"/>
<feColorMatrix in="SourceAlpha" type="matrix" values="0 0 0 0 0 0 0 0 0 0 0 0 0 0 0 0 0 0 127 0" result="hardAlpha"/>
<feOffset dy="4"/>
<feGaussianBlur stdDeviation="2"/>
<feComposite in2="hardAlpha" operator="arithmetic" k2="-1" k3="1"/>
<feColorMatrix type="matrix" values="0 0 0 0 0 0 0 0 0 0 0 0 0 0 0 0 0 0 0.25 0"/>
<feBlend mode="normal" in2="shape" result="effect1_innerShadow_2012_50"/>
</filter>
</defs>
</svg>
