<svg width="608" height="76" viewBox="0 0 608 76" fill="none" xmlns="http://www.w3.org/2000/svg">
<path d="M14.7022 74H0.639737L26.2434 1.27273H42.5076L68.1468 74H54.0843L34.6596 16.1875H34.0914L14.7022 74ZM15.1639 45.4844H53.5162V56.0668H15.1639V45.4844ZM136.559 25.8111H123.278C122.899 23.633 122.201 21.7036 121.183 20.0227C120.165 18.3182 118.898 16.8741 117.383 15.6903C115.868 14.5066 114.14 13.6188 112.199 13.027C110.281 12.4115 108.21 12.1037 105.984 12.1037C102.031 12.1037 98.5268 13.098 95.4728 15.0866C92.4189 17.0516 90.0278 19.9399 88.2995 23.7514C86.5713 27.5393 85.7072 32.1676 85.7072 37.6364C85.7072 43.1998 86.5713 47.8873 88.2995 51.6989C90.0514 55.4867 92.4425 58.3513 95.4728 60.2926C98.5268 62.2102 102.019 63.169 105.949 63.169C108.127 63.169 110.163 62.8849 112.057 62.3168C113.974 61.7249 115.691 60.8608 117.206 59.7244C118.745 58.5881 120.035 57.1913 121.077 55.5341C122.142 53.8769 122.876 51.983 123.278 49.8523L136.559 49.9233C136.062 53.3797 134.985 56.6231 133.328 59.6534C131.694 62.6837 129.552 65.3589 126.9 67.679C124.249 69.9754 121.148 71.7746 117.596 73.0767C114.045 74.3551 110.104 74.9943 105.771 74.9943C99.3791 74.9943 93.6736 73.5147 88.6547 70.5554C83.6357 67.5961 79.6821 63.3229 76.7939 57.7358C73.9056 52.1487 72.4615 45.4489 72.4615 37.6364C72.4615 29.8002 73.9174 23.1004 76.8294 17.5369C79.7413 11.9498 83.7067 7.67661 88.7257 4.71733C93.7446 1.75805 99.4264 0.278406 105.771 0.278406C109.819 0.278406 113.584 0.846588 117.064 1.98295C120.544 3.11932 123.645 4.78835 126.368 6.99006C129.09 9.16809 131.327 11.8433 133.079 15.0156C134.855 18.1643 136.015 21.7628 136.559 25.8111ZM210.876 25.8111H197.595C197.216 23.633 196.517 21.7036 195.499 20.0227C194.481 18.3182 193.215 16.8741 191.7 15.6903C190.185 14.5066 188.456 13.6188 186.515 13.027C184.597 12.4115 182.526 12.1037 180.301 12.1037C176.347 12.1037 172.843 13.098 169.789 15.0866C166.735 17.0516 164.344 19.9399 162.616 23.7514C160.888 27.5393 160.024 32.1676 160.024 37.6364C160.024 43.1998 160.888 47.8873 162.616 51.6989C164.368 55.4867 166.759 58.3513 169.789 60.2926C172.843 62.2102 176.335 63.169 180.265 63.169C182.443 63.169 184.479 62.8849 186.373 62.3168C188.291 61.7249 190.007 60.8608 191.522 59.7244C193.061 58.5881 194.351 57.1913 195.393 55.5341C196.458 53.8769 197.192 51.983 197.595 49.8523L210.876 49.9233C210.379 53.3797 209.302 56.6231 207.644 59.6534C206.011 62.6837 203.868 65.3589 201.217 67.679C198.565 69.9754 195.464 71.7746 191.913 73.0767C188.362 74.3551 184.42 74.9943 180.088 74.9943C173.695 74.9943 167.99 73.5147 162.971 70.5554C157.952 67.5961 153.999 63.3229 151.11 57.7358C148.222 52.1487 146.778 45.4489 146.778 37.6364C146.778 29.8002 148.234 23.1004 151.146 17.5369C154.058 11.9498 158.023 7.67661 163.042 4.71733C168.061 1.75805 173.743 0.278406 180.088 0.278406C184.136 0.278406 187.9 0.846588 191.38 1.98295C194.86 3.11932 197.962 4.78835 200.684 6.99006C203.407 9.16809 205.644 11.8433 207.396 15.0156C209.171 18.1643 210.331 21.7628 210.876 25.8111ZM222.941 74V1.27273H270.242V12.3168H236.116V32.0611H267.792V43.1051H236.116V62.956H270.526V74H222.941ZM323.207 21.2656C322.876 18.1643 321.479 15.7495 319.017 14.0213C316.578 12.2931 313.406 11.429 309.5 11.429C306.754 11.429 304.398 11.8433 302.433 12.6719C300.468 13.5005 298.965 14.625 297.923 16.0455C296.881 17.4659 296.349 19.0876 296.325 20.9105C296.325 22.4257 296.668 23.7396 297.355 24.8523C298.065 25.965 299.024 26.9119 300.231 27.6932C301.439 28.4508 302.776 29.09 304.244 29.6108C305.712 30.1316 307.192 30.5696 308.683 30.9247L315.501 32.6293C318.247 33.2685 320.887 34.1326 323.42 35.2216C325.977 36.3106 328.262 37.6837 330.274 39.3409C332.31 40.9981 333.92 42.9986 335.104 45.3423C336.287 47.6861 336.879 50.4323 336.879 53.581C336.879 57.8423 335.79 61.5947 333.612 64.8381C331.434 68.0578 328.285 70.5791 324.166 72.402C320.07 74.2012 315.111 75.1009 309.287 75.1009C303.629 75.1009 298.716 74.2249 294.55 72.473C290.407 70.7211 287.163 68.1643 284.819 64.8026C282.499 61.4408 281.245 57.3452 281.055 52.5156H294.017C294.206 55.0488 294.988 57.1558 296.361 58.8366C297.734 60.5175 299.521 61.7723 301.723 62.6009C303.948 63.4295 306.434 63.8438 309.18 63.8438C312.045 63.8438 314.554 63.4176 316.709 62.5653C318.887 61.6894 320.591 60.482 321.822 58.9432C323.053 57.3807 323.681 55.5578 323.704 53.4744C323.681 51.5805 323.124 50.018 322.035 48.7869C320.946 47.5322 319.419 46.4905 317.454 45.6619C315.513 44.8097 313.24 44.0521 310.636 43.3892L302.362 41.2585C296.372 39.7197 291.638 37.3878 288.157 34.2628C284.701 31.1141 282.973 26.9356 282.973 21.7273C282.973 17.4422 284.133 13.6899 286.453 10.4702C288.797 7.25047 291.981 4.75284 296.006 2.97727C300.03 1.17803 304.587 0.278406 309.677 0.278406C314.838 0.278406 319.36 1.17803 323.243 2.97727C327.149 4.75284 330.215 7.2268 332.44 10.3991C334.666 13.5478 335.814 17.17 335.885 21.2656H323.207ZM388.149 21.2656C387.817 18.1643 386.42 15.7495 383.958 14.0213C381.52 12.2931 378.347 11.429 374.441 11.429C371.695 11.429 369.339 11.8433 367.374 12.6719C365.41 13.5005 363.906 14.625 362.865 16.0455C361.823 17.4659 361.29 19.0876 361.267 20.9105C361.267 22.4257 361.61 23.7396 362.296 24.8523C363.007 25.965 363.965 26.9119 365.173 27.6932C366.38 28.4508 367.718 29.09 369.186 29.6108C370.653 30.1316 372.133 30.5696 373.624 30.9247L380.443 32.6293C383.189 33.2685 385.829 34.1326 388.362 35.2216C390.919 36.3106 393.203 37.6837 395.215 39.3409C397.251 40.9981 398.861 42.9986 400.045 45.3423C401.229 47.6861 401.82 50.4323 401.82 53.581C401.82 57.8423 400.731 61.5947 398.553 64.8381C396.375 68.0578 393.227 70.5791 389.107 72.402C385.012 74.2012 380.052 75.1009 374.228 75.1009C368.57 75.1009 363.658 74.2249 359.491 72.473C355.348 70.7211 352.105 68.1643 349.761 64.8026C347.441 61.4408 346.186 57.3452 345.997 52.5156H358.958C359.148 55.0488 359.929 57.1558 361.302 58.8366C362.675 60.5175 364.463 61.7723 366.664 62.6009C368.89 63.4295 371.375 63.8438 374.122 63.8438C376.986 63.8438 379.496 63.4176 381.65 62.5653C383.828 61.6894 385.533 60.482 386.764 58.9432C387.995 57.3807 388.622 55.5578 388.646 53.4744C388.622 51.5805 388.066 50.018 386.977 48.7869C385.888 47.5322 384.361 46.4905 382.396 45.6619C380.454 44.8097 378.182 44.0521 375.578 43.3892L367.303 41.2585C361.314 39.7197 356.579 37.3878 353.099 34.2628C349.642 31.1141 347.914 26.9356 347.914 21.7273C347.914 17.4422 349.074 13.6899 351.394 10.4702C353.738 7.25047 356.922 4.75284 360.947 2.97727C364.972 1.17803 369.529 0.278406 374.619 0.278406C379.78 0.278406 384.302 1.17803 388.184 2.97727C392.09 4.75284 395.156 7.2268 397.382 10.3991C399.607 13.5478 400.755 17.17 400.826 21.2656H388.149ZM410.37 12.3168V1.27273H468.395V12.3168H445.917V74H432.849V12.3168H410.37ZM479.581 74V1.27273H506.854C512.441 1.27273 517.129 2.24337 520.917 4.18466C524.728 6.12594 527.605 8.84848 529.546 12.3523C531.511 15.8324 532.493 19.8925 532.493 24.5327C532.493 29.1965 531.499 33.2448 529.51 36.6776C527.546 40.0866 524.645 42.7263 520.81 44.5966C516.975 46.4432 512.264 47.3665 506.677 47.3665H487.252V36.429H504.901C508.168 36.429 510.843 35.9792 512.927 35.0795C515.01 34.1562 516.549 32.8187 517.543 31.0668C518.561 29.2912 519.07 27.1132 519.07 24.5327C519.07 21.9522 518.561 19.7505 517.543 17.9276C516.525 16.081 514.974 14.6842 512.891 13.7372C510.808 12.7666 508.121 12.2812 504.83 12.2812H492.756V74H479.581ZM517.153 41.0455L535.157 74H520.455L502.77 41.0455H517.153ZM553.96 74H539.898L565.501 1.27273H581.765L607.405 74H593.342L573.917 16.1875H573.349L553.96 74ZM554.422 45.4844H592.774V56.0668H554.422V45.4844Z" fill="#F6F4F2"/>
</svg>
