<svg width="408" height="51" viewBox="0 0 408 51" fill="none" xmlns="http://www.w3.org/2000/svg">
<path d="M10.1705 50H0.748624L17.9031 1.27273H28.8001L45.9784 50H36.5565L23.5419 11.2656H23.1613L10.1705 50ZM10.4798 30.8945H36.1758V37.9847H10.4798V30.8945ZM91.8149 17.7134H82.9164C82.6626 16.2541 82.1947 14.9614 81.5127 13.8352C80.8306 12.6932 79.982 11.7256 78.9668 10.9325C77.9517 10.1394 76.7938 9.54462 75.4931 9.14808C74.2083 8.73568 72.8204 8.52947 71.3294 8.52947C68.6805 8.52947 66.333 9.19567 64.2868 10.5281C62.2406 11.8446 60.6386 13.7797 59.4807 16.3335C58.3228 18.8713 57.7438 21.9723 57.7438 25.6364C57.7438 29.3639 58.3228 32.5045 59.4807 35.0582C60.6545 37.5961 62.2565 39.5154 64.2868 40.8161C66.333 42.1009 68.6726 42.7433 71.3056 42.7433C72.7649 42.7433 74.129 42.5529 75.3979 42.1722C76.6828 41.7757 77.8327 41.1967 78.8479 40.4354C79.8789 39.674 80.7434 38.7382 81.4413 37.6278C82.1551 36.5175 82.6468 35.2486 82.9164 33.821L91.8149 33.8686C91.4818 36.1844 90.76 38.3575 89.6497 40.3878C88.5553 42.4181 87.1198 44.2105 85.3433 45.7649C83.5667 47.3035 81.4889 48.509 79.1096 49.3814C76.7303 50.2379 74.0894 50.6662 71.1867 50.6662C66.904 50.6662 63.0813 49.6748 59.7186 47.6921C56.3559 45.7094 53.707 42.8464 51.7719 39.103C49.8368 35.3596 48.8692 30.8707 48.8692 25.6364C48.8692 20.3861 49.8447 15.8973 51.7957 12.1697C53.7467 8.42637 56.4035 5.56333 59.7662 3.58061C63.1289 1.59789 66.9357 0.606532 71.1867 0.606532C73.899 0.606532 76.421 0.987214 78.7527 1.74858C81.0844 2.50994 83.1623 3.6282 84.9864 5.10334C86.8105 6.56262 88.3094 8.35499 89.4832 10.4805C90.6728 12.5901 91.45 15.0011 91.8149 17.7134ZM141.607 17.7134H132.708C132.455 16.2541 131.987 14.9614 131.305 13.8352C130.623 12.6932 129.774 11.7256 128.759 10.9325C127.744 10.1394 126.586 9.54462 125.285 9.14808C124 8.73568 122.612 8.52947 121.121 8.52947C118.472 8.52947 116.125 9.19567 114.079 10.5281C112.033 11.8446 110.431 13.7797 109.273 16.3335C108.115 18.8713 107.536 21.9723 107.536 25.6364C107.536 29.3639 108.115 32.5045 109.273 35.0582C110.446 37.5961 112.048 39.5154 114.079 40.8161C116.125 42.1009 118.465 42.7433 121.098 42.7433C122.557 42.7433 123.921 42.5529 125.19 42.1722C126.475 41.7757 127.625 41.1967 128.64 40.4354C129.671 39.674 130.535 38.7382 131.233 37.6278C131.947 36.5175 132.439 35.2486 132.708 33.821L141.607 33.8686C141.274 36.1844 140.552 38.3575 139.442 40.3878C138.347 42.4181 136.912 44.2105 135.135 45.7649C133.359 47.3035 131.281 48.509 128.902 49.3814C126.522 50.2379 123.881 50.6662 120.979 50.6662C116.696 50.6662 112.873 49.6748 109.511 47.6921C106.148 45.7094 103.499 42.8464 101.564 39.103C99.6287 35.3596 98.6612 30.8707 98.6612 25.6364C98.6612 20.3861 99.6367 15.8973 101.588 12.1697C103.539 8.42637 106.196 5.56333 109.558 3.58061C112.921 1.59789 116.728 0.606532 120.979 0.606532C123.691 0.606532 126.213 0.987214 128.545 1.74858C130.876 2.50994 132.954 3.6282 134.778 5.10334C136.602 6.56262 138.101 8.35499 139.275 10.4805C140.465 12.5901 141.242 15.0011 141.607 17.7134ZM149.69 50V1.27273H181.382V8.67223H158.517V21.9009H179.74V29.3004H158.517V42.6005H181.572V50H149.69ZM216.869 14.668C216.647 12.5901 215.711 10.9722 214.061 9.81428C212.428 8.65637 210.302 8.07741 207.685 8.07741C205.845 8.07741 204.267 8.35499 202.95 8.91016C201.634 9.46532 200.626 10.2187 199.928 11.1705C199.231 12.1222 198.874 13.2087 198.858 14.43C198.858 15.4452 199.088 16.3255 199.548 17.071C200.024 17.8165 200.666 18.451 201.475 18.9744C202.284 19.482 203.18 19.9103 204.164 20.2592C205.147 20.6082 206.138 20.9016 207.138 21.1396L211.706 22.2816C213.546 22.7099 215.314 23.2888 217.012 24.0185C218.725 24.7481 220.255 25.6681 221.604 26.7784C222.968 27.8887 224.046 29.229 224.839 30.7994C225.632 32.3697 226.029 34.2096 226.029 36.3192C226.029 39.1744 225.299 41.6884 223.84 43.8615C222.381 46.0187 220.271 47.708 217.511 48.9293C214.767 50.1348 211.444 50.7376 207.542 50.7376C203.751 50.7376 200.46 50.1507 197.668 48.9769C194.892 47.8031 192.719 46.0901 191.149 43.8377C189.595 41.5853 188.754 38.8413 188.627 35.6055H197.311C197.438 37.3027 197.962 38.7144 198.882 39.8406C199.802 40.9667 200.999 41.8074 202.474 42.3626C203.965 42.9177 205.631 43.1953 207.471 43.1953C209.39 43.1953 211.071 42.9098 212.515 42.3388C213.974 41.7519 215.116 40.9429 215.941 39.9119C216.766 38.8651 217.186 37.6437 217.202 36.2479C217.186 34.9789 216.813 33.9321 216.084 33.1072C215.354 32.2666 214.331 31.5687 213.014 31.0135C211.714 30.4425 210.191 29.9349 208.446 29.4908L202.903 28.0632C198.89 27.0322 195.717 25.4698 193.386 23.3761C191.07 21.2665 189.912 18.4669 189.912 14.9773C189.912 12.1063 190.689 9.59221 192.243 7.43501C193.814 5.27782 195.947 3.6044 198.644 2.41477C201.34 1.20928 204.394 0.606532 207.804 0.606532C211.262 0.606532 214.291 1.20928 216.893 2.41477C219.51 3.6044 221.564 5.26195 223.055 7.38743C224.546 9.49704 225.315 11.9239 225.363 14.668H216.869ZM260.38 14.668C260.158 12.5901 259.222 10.9722 257.572 9.81428C255.938 8.65637 253.813 8.07741 251.196 8.07741C249.356 8.07741 247.777 8.35499 246.461 8.91016C245.144 9.46532 244.137 10.2187 243.439 11.1705C242.741 12.1222 242.384 13.2087 242.369 14.43C242.369 15.4452 242.599 16.3255 243.059 17.071C243.534 17.8165 244.177 18.451 244.986 18.9744C245.795 19.482 246.691 19.9103 247.674 20.2592C248.658 20.6082 249.649 20.9016 250.648 21.1396L255.217 22.2816C257.057 22.7099 258.825 23.2888 260.522 24.0185C262.235 24.7481 263.766 25.6681 265.114 26.7784C266.478 27.8887 267.557 29.229 268.35 30.7994C269.143 32.3697 269.54 34.2096 269.54 36.3192C269.54 39.1744 268.81 41.6884 267.351 43.8615C265.892 46.0187 263.782 47.708 261.022 48.9293C258.278 50.1348 254.955 50.7376 251.053 50.7376C247.262 50.7376 243.971 50.1507 241.179 48.9769C238.403 47.8031 236.23 46.0901 234.66 43.8377C233.105 41.5853 232.265 38.8413 232.138 35.6055H240.822C240.949 37.3027 241.472 38.7144 242.392 39.8406C243.312 40.9667 244.51 41.8074 245.985 42.3626C247.476 42.9177 249.142 43.1953 250.981 43.1953C252.901 43.1953 254.582 42.9098 256.026 42.3388C257.485 41.7519 258.627 40.9429 259.452 39.9119C260.276 38.8651 260.697 37.6437 260.713 36.2479C260.697 34.9789 260.324 33.9321 259.594 33.1072C258.865 32.2666 257.842 31.5687 256.525 31.0135C255.225 30.4425 253.702 29.9349 251.957 29.4908L246.413 28.0632C242.4 27.0322 239.228 25.4698 236.896 23.3761C234.58 21.2665 233.423 18.4669 233.423 14.9773C233.423 12.1063 234.2 9.59221 235.754 7.43501C237.325 5.27782 239.458 3.6044 242.154 2.41477C244.851 1.20928 247.904 0.606532 251.315 0.606532C254.772 0.606532 257.802 1.20928 260.403 2.41477C263.021 3.6044 265.075 5.26195 266.566 7.38743C268.057 9.49704 268.826 11.9239 268.874 14.668H260.38ZM275.268 8.67223V1.27273H314.145V8.67223H299.084V50H290.329V8.67223H275.268ZM321.64 50V1.27273H339.912C343.656 1.27273 346.796 1.92306 349.334 3.22372C351.888 4.52438 353.815 6.34848 355.116 8.69602C356.432 11.0277 357.091 13.748 357.091 16.8569C357.091 19.9817 356.424 22.694 355.092 24.994C353.775 27.2781 351.832 29.0466 349.263 30.2997C346.693 31.5369 343.537 32.1555 339.793 32.1555H326.779V24.8274H338.604C340.793 24.8274 342.585 24.526 343.981 23.9233C345.377 23.3047 346.408 22.4085 347.074 21.2347C347.756 20.0451 348.097 18.5858 348.097 16.8569C348.097 15.128 347.756 13.6528 347.074 12.4315C346.392 11.1942 345.353 10.2584 343.957 9.62393C342.561 8.9736 340.761 8.64844 338.556 8.64844H330.467V50H321.64ZM346.812 27.9205L358.875 50H349.025L337.176 27.9205H346.812ZM371.473 50H362.051L379.206 1.27273H390.103L407.281 50H397.859L384.845 11.2656H384.464L371.473 50ZM371.783 30.8945H397.479V37.9847H371.783V30.8945Z" fill="#F6F4F2"/>
</svg>
