<svg width="153" height="20" viewBox="0 0 153 20" fill="none" xmlns="http://www.w3.org/2000/svg">
<path d="M4.17556 19H0.659934L7.06086 0.818181H11.1269L17.5367 19H14.0211L9.16491 4.54688H9.02286L4.17556 19ZM4.29097 11.8711H13.879V14.5167H4.29097V11.8711ZM34.6399 6.95277H31.3196C31.2249 6.40826 31.0503 5.9259 30.7958 5.50568C30.5413 5.07954 30.2246 4.71851 29.8458 4.42258C29.467 4.12666 29.035 3.90471 28.5497 3.75675C28.0703 3.60286 27.5524 3.52592 26.996 3.52592C26.0076 3.52592 25.1317 3.7745 24.3682 4.27166C23.6047 4.7629 23.0069 5.48497 22.5749 6.43785C22.1428 7.38482 21.9268 8.5419 21.9268 9.90909C21.9268 11.3 22.1428 12.4718 22.5749 13.4247C23.0129 14.3717 23.6106 15.0878 24.3682 15.5732C25.1317 16.0526 26.0047 16.2923 26.9872 16.2923C27.5317 16.2923 28.0407 16.2212 28.5142 16.0792C28.9936 15.9312 29.4227 15.7152 29.8014 15.4311C30.1862 15.147 30.5087 14.7978 30.7691 14.3835C31.0355 13.9692 31.2189 13.4957 31.3196 12.9631L34.6399 12.9808C34.5156 13.8449 34.2463 14.6558 33.832 15.4134C33.4236 16.1709 32.888 16.8397 32.2251 17.4197C31.5622 17.9938 30.7869 18.4437 29.8991 18.7692C29.0113 19.0888 28.0259 19.2486 26.9428 19.2486C25.3448 19.2486 23.9184 18.8787 22.6637 18.1388C21.4089 17.399 20.4205 16.3307 19.6985 14.9339C18.9764 13.5372 18.6154 11.8622 18.6154 9.90909C18.6154 7.95005 18.9794 6.27509 19.7073 4.88423C20.4353 3.48745 21.4267 2.41915 22.6814 1.67933C23.9362 0.939511 25.3566 0.569602 26.9428 0.569602C27.9549 0.569602 28.8959 0.711647 29.7659 0.995738C30.636 1.27983 31.4113 1.69709 32.0919 2.24751C32.7726 2.79202 33.3319 3.46082 33.7698 4.25391C34.2137 5.04107 34.5037 5.9407 34.6399 6.95277ZM53.219 6.95277H49.8987C49.804 6.40826 49.6294 5.9259 49.3749 5.50568C49.1204 5.07954 48.8037 4.71851 48.4249 4.42258C48.0462 4.12666 47.6141 3.90471 47.1288 3.75675C46.6494 3.60286 46.1315 3.52592 45.5752 3.52592C44.5868 3.52592 43.7108 3.7745 42.9473 4.27166C42.1838 4.7629 41.586 5.48497 41.154 6.43785C40.7219 7.38482 40.5059 8.5419 40.5059 9.90909C40.5059 11.3 40.7219 12.4718 41.154 13.4247C41.592 14.3717 42.1897 15.0878 42.9473 15.5732C43.7108 16.0526 44.5838 16.2923 45.5663 16.2923C46.1108 16.2923 46.6198 16.2212 47.0933 16.0792C47.5727 15.9312 48.0018 15.7152 48.3805 15.4311C48.7653 15.147 49.0878 14.7978 49.3482 14.3835C49.6146 13.9692 49.798 13.4957 49.8987 12.9631L53.219 12.9808C53.0947 13.8449 52.8254 14.6558 52.4111 15.4134C52.0027 16.1709 51.4671 16.8397 50.8042 17.4197C50.1413 17.9938 49.366 18.4437 48.4782 18.7692C47.5904 19.0888 46.605 19.2486 45.5219 19.2486C43.9239 19.2486 42.4975 18.8787 41.2428 18.1388C39.988 17.399 38.9996 16.3307 38.2776 14.9339C37.5555 13.5372 37.1945 11.8622 37.1945 9.90909C37.1945 7.95005 37.5585 6.27509 38.2864 4.88423C39.0144 3.48745 40.0058 2.41915 41.2605 1.67933C42.5153 0.939511 43.9357 0.569602 45.5219 0.569602C46.534 0.569602 47.475 0.711647 48.345 0.995738C49.2151 1.27983 49.9904 1.69709 50.671 2.24751C51.3517 2.79202 51.911 3.46082 52.3489 4.25391C52.7928 5.04107 53.0828 5.9407 53.219 6.95277ZM56.2352 19V0.818181H68.0605V3.57919H59.5289V8.51527H67.4479V11.2763H59.5289V16.239H68.1315V19H56.2352ZM81.3018 5.81641C81.2189 5.04107 80.8697 4.43738 80.2542 4.00533C79.6446 3.57327 78.8515 3.35724 77.875 3.35724C77.1884 3.35724 76.5995 3.46082 76.1083 3.66797C75.617 3.87512 75.2412 4.15625 74.9808 4.51136C74.7204 4.86648 74.5872 5.2719 74.5813 5.72763C74.5813 6.10642 74.6671 6.4349 74.8387 6.71307C75.0163 6.99124 75.256 7.22798 75.5578 7.4233C75.8597 7.61269 76.1941 7.77249 76.561 7.9027C76.928 8.03291 77.2979 8.1424 77.6708 8.23118L79.3753 8.65731C80.0619 8.81712 80.7218 9.03314 81.3551 9.3054C81.9943 9.57765 82.5654 9.92093 83.0685 10.3352C83.5775 10.7495 83.98 11.2496 84.2759 11.8356C84.5718 12.4215 84.7198 13.1081 84.7198 13.8952C84.7198 14.9606 84.4475 15.8987 83.903 16.7095C83.3585 17.5144 82.5713 18.1448 81.5415 18.6005C80.5176 19.0503 79.2777 19.2752 77.8217 19.2752C76.4072 19.2752 75.1791 19.0562 74.1374 18.6183C73.1016 18.1803 72.2908 17.5411 71.7049 16.7006C71.1248 15.8602 70.8112 14.8363 70.7638 13.6289H74.0042C74.0516 14.2622 74.2469 14.7889 74.5902 15.2092C74.9334 15.6294 75.3803 15.9431 75.9307 16.1502C76.4871 16.3574 77.1085 16.4609 77.7951 16.4609C78.5112 16.4609 79.1386 16.3544 79.6772 16.1413C80.2217 15.9223 80.6478 15.6205 80.9556 15.2358C81.2633 14.8452 81.4202 14.3894 81.4261 13.8686C81.4202 13.3951 81.2811 13.0045 81.0088 12.6967C80.7366 12.383 80.3548 12.1226 79.8636 11.9155C79.3783 11.7024 78.8101 11.513 78.159 11.3473L76.0905 10.8146C74.5931 10.4299 73.4094 9.84695 72.5394 9.0657C71.6753 8.27853 71.2432 7.2339 71.2432 5.93182C71.2432 4.86056 71.5332 3.92247 72.1132 3.11754C72.6992 2.31262 73.4952 1.68821 74.5014 1.24432C75.5075 0.794507 76.6469 0.569602 77.9193 0.569602C79.2096 0.569602 80.34 0.794507 81.3107 1.24432C82.2872 1.68821 83.0537 2.3067 83.61 3.09979C84.1664 3.88695 84.4534 4.79249 84.4712 5.81641H81.3018ZM97.5372 5.81641C97.4543 5.04107 97.1051 4.43738 96.4896 4.00533C95.88 3.57327 95.0869 3.35724 94.1103 3.35724C93.4238 3.35724 92.8349 3.46082 92.3436 3.66797C91.8524 3.87512 91.4765 4.15625 91.2161 4.51136C90.9557 4.86648 90.8225 5.2719 90.8166 5.72763C90.8166 6.10642 90.9024 6.4349 91.0741 6.71307C91.2516 6.99124 91.4913 7.22798 91.7932 7.4233C92.095 7.61269 92.4294 7.77249 92.7964 7.9027C93.1633 8.03291 93.5332 8.1424 93.9061 8.23118L95.6107 8.65731C96.2972 8.81712 96.9571 9.03314 97.5904 9.3054C98.2296 9.57765 98.8008 9.92093 99.3038 10.3352C99.8128 10.7495 100.215 11.2496 100.511 11.8356C100.807 12.4215 100.955 13.1081 100.955 13.8952C100.955 14.9606 100.683 15.8987 100.138 16.7095C99.5939 17.5144 98.8067 18.1448 97.7769 18.6005C96.7529 19.0503 95.513 19.2752 94.057 19.2752C92.6425 19.2752 91.4144 19.0562 90.3727 18.6183C89.337 18.1803 88.5261 17.5411 87.9402 16.7006C87.3602 15.8602 87.0465 14.8363 86.9992 13.6289H90.2396C90.2869 14.2622 90.4822 14.7889 90.8255 15.2092C91.1688 15.6294 91.6156 15.9431 92.1661 16.1502C92.7224 16.3574 93.3439 16.4609 94.0304 16.4609C94.7466 16.4609 95.3739 16.3544 95.9125 16.1413C96.457 15.9223 96.8832 15.6205 97.1909 15.2358C97.4987 14.8452 97.6555 14.3894 97.6614 13.8686C97.6555 13.3951 97.5164 13.0045 97.2442 12.6967C96.9719 12.383 96.5902 12.1226 96.0989 11.9155C95.6136 11.7024 95.0454 11.513 94.3944 11.3473L92.3259 10.8146C90.8285 10.4299 89.6448 9.84695 88.7747 9.0657C87.9106 8.27853 87.4786 7.2339 87.4786 5.93182C87.4786 4.86056 87.7686 3.92247 88.3486 3.11754C88.9345 2.31262 89.7306 1.68821 90.7367 1.24432C91.7429 0.794507 92.8822 0.569602 94.1547 0.569602C95.4449 0.569602 96.5754 0.794507 97.546 1.24432C98.5226 1.68821 99.289 2.3067 99.8454 3.09979C100.402 3.88695 100.689 4.79249 100.707 5.81641H97.5372ZM103.092 3.57919V0.818181H117.599V3.57919H111.979V19H108.712V3.57919H103.092ZM120.395 19V0.818181H127.214C128.61 0.818181 129.782 1.06084 130.729 1.54616C131.682 2.03149 132.401 2.71212 132.886 3.58807C133.378 4.4581 133.623 5.47313 133.623 6.63317C133.623 7.79912 133.375 8.8112 132.878 9.66939C132.386 10.5217 131.661 11.1816 130.703 11.6491C129.744 12.1108 128.566 12.3416 127.169 12.3416H122.313V9.60724H126.725C127.542 9.60724 128.211 9.49479 128.732 9.26989C129.253 9.03906 129.637 8.70466 129.886 8.26669C130.14 7.8228 130.268 7.27829 130.268 6.63317C130.268 5.98804 130.14 5.43762 129.886 4.98189C129.631 4.52024 129.244 4.17105 128.723 3.9343C128.202 3.69164 127.53 3.57031 126.708 3.57031H123.689V19H120.395ZM129.788 10.7614L134.289 19H130.614L126.193 10.7614H129.788ZM138.99 19H135.474L141.875 0.818181H145.941L152.351 19H148.836L143.979 4.54688H143.837L138.99 19ZM139.105 11.8711H148.693V14.5167H139.105V11.8711Z" fill="#F6F4F2"/>
</svg>
