<svg width="535" height="66" viewBox="0 0 535 66" fill="none" xmlns="http://www.w3.org/2000/svg">
<path d="M12.918 65H0.542969L23.0742 0.999998H37.3867L59.9492 65H47.5742L30.4805 14.125H29.9805L12.918 65ZM13.3242 39.9062H47.0742V49.2187H13.3242V39.9062ZM120.152 22.5937H108.465C108.132 20.6771 107.517 18.9792 106.621 17.5C105.725 16 104.611 14.7292 103.277 13.6875C101.944 12.6458 100.423 11.8646 98.7148 11.3437C97.0273 10.8021 95.2044 10.5313 93.2461 10.5313C89.7669 10.5313 86.6836 11.4062 83.9961 13.1562C81.3086 14.8854 79.2044 17.4271 77.6836 20.7812C76.1628 24.1146 75.4023 28.1875 75.4023 33C75.4023 37.8958 76.1628 42.0208 77.6836 45.375C79.2253 48.7083 81.3294 51.2292 83.9961 52.9375C86.6836 54.625 89.7565 55.4687 93.2148 55.4687C95.1315 55.4687 96.9232 55.2187 98.5898 54.7187C100.277 54.1979 101.788 53.4375 103.121 52.4375C104.475 51.4375 105.611 50.2083 106.527 48.75C107.465 47.2917 108.111 45.625 108.465 43.75L120.152 43.8125C119.715 46.8542 118.767 49.7083 117.309 52.375C115.871 55.0417 113.986 57.3958 111.652 59.4375C109.319 61.4583 106.59 63.0417 103.465 64.1875C100.34 65.3125 96.8711 65.875 93.0586 65.875C87.4336 65.875 82.4128 64.5729 77.9961 61.9687C73.5794 59.3646 70.1003 55.6042 67.5586 50.6875C65.0169 45.7708 63.7461 39.875 63.7461 33C63.7461 26.1042 65.0273 20.2083 67.5898 15.3125C70.1523 10.3958 73.6419 6.63542 78.0586 4.03125C82.4753 1.42708 87.4753 0.124998 93.0586 0.124998C96.6211 0.124998 99.9336 0.624997 102.996 1.625C106.059 2.625 108.788 4.09375 111.184 6.03125C113.579 7.94792 115.548 10.3021 117.09 13.0938C118.652 15.8646 119.673 19.0313 120.152 22.5937ZM185.551 22.5937H173.863C173.53 20.6771 172.915 18.9792 172.02 17.5C171.124 16 170.009 14.7292 168.676 13.6875C167.342 12.6458 165.822 11.8646 164.113 11.3437C162.426 10.8021 160.603 10.5313 158.645 10.5313C155.165 10.5313 152.082 11.4062 149.395 13.1562C146.707 14.8854 144.603 17.4271 143.082 20.7812C141.561 24.1146 140.801 28.1875 140.801 33C140.801 37.8958 141.561 42.0208 143.082 45.375C144.624 48.7083 146.728 51.2292 149.395 52.9375C152.082 54.625 155.155 55.4687 158.613 55.4687C160.53 55.4687 162.322 55.2187 163.988 54.7187C165.676 54.1979 167.186 53.4375 168.52 52.4375C169.874 51.4375 171.009 50.2083 171.926 48.75C172.863 47.2917 173.509 45.625 173.863 43.75L185.551 43.8125C185.113 46.8542 184.165 49.7083 182.707 52.375C181.27 55.0417 179.384 57.3958 177.051 59.4375C174.717 61.4583 171.988 63.0417 168.863 64.1875C165.738 65.3125 162.27 65.875 158.457 65.875C152.832 65.875 147.811 64.5729 143.395 61.9687C138.978 59.3646 135.499 55.6042 132.957 50.6875C130.415 45.7708 129.145 39.875 129.145 33C129.145 26.1042 130.426 20.2083 132.988 15.3125C135.551 10.3958 139.04 6.63542 143.457 4.03125C147.874 1.42708 152.874 0.124998 158.457 0.124998C162.02 0.124998 165.332 0.624997 168.395 1.625C171.457 2.625 174.186 4.09375 176.582 6.03125C178.978 7.94792 180.947 10.3021 182.488 13.0938C184.051 15.8646 185.072 19.0313 185.551 22.5937ZM196.168 65V0.999998H237.793V10.7188H207.762V28.0937H235.637V37.8125H207.762V55.2812H238.043V65H196.168ZM284.402 18.5938C284.111 15.8646 282.882 13.7396 280.715 12.2187C278.569 10.6979 275.777 9.9375 272.34 9.9375C269.923 9.9375 267.85 10.3021 266.121 11.0312C264.392 11.7604 263.069 12.75 262.152 14C261.236 15.25 260.767 16.6771 260.746 18.2813C260.746 19.6146 261.048 20.7708 261.652 21.75C262.277 22.7292 263.121 23.5625 264.184 24.25C265.246 24.9167 266.423 25.4792 267.715 25.9375C269.007 26.3958 270.309 26.7812 271.621 27.0937L277.621 28.5937C280.038 29.1562 282.361 29.9167 284.59 30.875C286.84 31.8333 288.85 33.0417 290.621 34.5C292.413 35.9583 293.829 37.7187 294.871 39.7812C295.913 41.8437 296.434 44.2604 296.434 47.0312C296.434 50.7812 295.475 54.0833 293.559 56.9375C291.642 59.7708 288.871 61.9896 285.246 63.5938C281.642 65.1771 277.277 65.9688 272.152 65.9688C267.173 65.9688 262.85 65.1979 259.184 63.6562C255.538 62.1146 252.684 59.8646 250.621 56.9062C248.579 53.9479 247.475 50.3437 247.309 46.0938H258.715C258.882 48.3229 259.569 50.1771 260.777 51.6562C261.986 53.1354 263.559 54.2396 265.496 54.9687C267.454 55.6979 269.642 56.0625 272.059 56.0625C274.579 56.0625 276.788 55.6875 278.684 54.9375C280.6 54.1667 282.1 53.1042 283.184 51.75C284.267 50.375 284.819 48.7708 284.84 46.9375C284.819 45.2708 284.329 43.8958 283.371 42.8125C282.413 41.7083 281.069 40.7917 279.34 40.0625C277.632 39.3125 275.632 38.6458 273.34 38.0625L266.059 36.1875C260.788 34.8333 256.621 32.7813 253.559 30.0313C250.517 27.2604 248.996 23.5833 248.996 19C248.996 15.2292 250.017 11.9271 252.059 9.09375C254.121 6.26042 256.923 4.0625 260.465 2.5C264.007 0.916664 268.017 0.124998 272.496 0.124998C277.038 0.124998 281.017 0.916664 284.434 2.5C287.871 4.0625 290.569 6.23958 292.527 9.03125C294.486 11.8021 295.496 14.9896 295.559 18.5938H284.402ZM341.551 18.5938C341.259 15.8646 340.03 13.7396 337.863 12.2187C335.717 10.6979 332.926 9.9375 329.488 9.9375C327.072 9.9375 324.999 10.3021 323.27 11.0312C321.54 11.7604 320.217 12.75 319.301 14C318.384 15.25 317.915 16.6771 317.895 18.2813C317.895 19.6146 318.197 20.7708 318.801 21.75C319.426 22.7292 320.27 23.5625 321.332 24.25C322.395 24.9167 323.572 25.4792 324.863 25.9375C326.155 26.3958 327.457 26.7812 328.77 27.0937L334.77 28.5937C337.186 29.1562 339.509 29.9167 341.738 30.875C343.988 31.8333 345.999 33.0417 347.77 34.5C349.561 35.9583 350.978 37.7187 352.02 39.7812C353.061 41.8437 353.582 44.2604 353.582 47.0312C353.582 50.7812 352.624 54.0833 350.707 56.9375C348.79 59.7708 346.02 61.9896 342.395 63.5938C338.79 65.1771 334.426 65.9688 329.301 65.9688C324.322 65.9688 319.999 65.1979 316.332 63.6562C312.686 62.1146 309.832 59.8646 307.77 56.9062C305.728 53.9479 304.624 50.3437 304.457 46.0938H315.863C316.03 48.3229 316.717 50.1771 317.926 51.6562C319.134 53.1354 320.707 54.2396 322.645 54.9687C324.603 55.6979 326.79 56.0625 329.207 56.0625C331.728 56.0625 333.936 55.6875 335.832 54.9375C337.749 54.1667 339.249 53.1042 340.332 51.75C341.415 50.375 341.967 48.7708 341.988 46.9375C341.967 45.2708 341.478 43.8958 340.52 42.8125C339.561 41.7083 338.217 40.7917 336.488 40.0625C334.78 39.3125 332.78 38.6458 330.488 38.0625L323.207 36.1875C317.936 34.8333 313.77 32.7813 310.707 30.0313C307.665 27.2604 306.145 23.5833 306.145 19C306.145 15.2292 307.165 11.9271 309.207 9.09375C311.27 6.26042 314.072 4.0625 317.613 2.5C321.155 0.916664 325.165 0.124998 329.645 0.124998C334.186 0.124998 338.165 0.916664 341.582 2.5C345.02 4.0625 347.717 6.23958 349.676 9.03125C351.634 11.8021 352.645 14.9896 352.707 18.5938H341.551ZM361.105 10.7188V0.999998H412.168V10.7188H392.387V65H380.887V10.7188H361.105ZM422.012 65V0.999998H446.012C450.928 0.999998 455.053 1.85416 458.387 3.5625C461.741 5.27083 464.272 7.66666 465.98 10.75C467.71 13.8125 468.574 17.3854 468.574 21.4687C468.574 25.5729 467.699 29.1354 465.949 32.1562C464.22 35.1562 461.668 37.4792 458.293 39.125C454.918 40.75 450.772 41.5625 445.855 41.5625H428.762V31.9375H444.293C447.168 31.9375 449.522 31.5417 451.355 30.75C453.189 29.9375 454.543 28.7604 455.418 27.2187C456.314 25.6562 456.762 23.7396 456.762 21.4687C456.762 19.1979 456.314 17.2604 455.418 15.6562C454.522 14.0312 453.158 12.8021 451.324 11.9687C449.491 11.1146 447.126 10.6875 444.23 10.6875H433.605V65H422.012ZM455.074 36L470.918 65H457.98L442.418 36H455.074ZM487.465 65H475.09L497.621 0.999998H511.934L534.496 65H522.121L505.027 14.125H504.527L487.465 65ZM487.871 39.9062H521.621V49.2187H487.871V39.9062Z" fill="#F6F4F2"/>
</svg>
