<svg width="1024" height="1024" viewBox="0 0 1024 1024" fill="none" xmlns="http://www.w3.org/2000/svg">
<path d="M0 50C0 22.3858 22.3858 0 50 0H974C1001.61 0 1024 22.3858 1024 50V974C1024 1001.61 1001.61 1024 974 1024H50C22.3858 1024 0 1001.61 0 974V50Z" fill="url(#paint0_linear_2007_205)"/>
<ellipse cx="512" cy="433.019" rx="175" ry="177.019" fill="#F6F4F2"/>
<circle cx="511.327" cy="326.673" r="10.0962" fill="#041116"/>
<path d="M470.269 420.231V440.423H552.385V420.231H470.269Z" fill="#041116"/>
<path d="M481 404V420H542V404H481Z" fill="#041116"/>
<path d="M493 393H481V356H493V393Z" fill="#041116"/>
<path d="M542 393H529V356H542V393Z" fill="#041116"/>
<path d="M547 357.635C547 352.95 546.077 348.311 544.285 343.983C542.492 339.655 539.864 335.723 536.552 332.41C533.239 329.097 529.306 326.47 524.978 324.677C520.65 322.884 516.012 321.962 511.327 321.962C506.642 321.962 502.003 322.884 497.675 324.677C493.347 326.47 489.415 329.097 486.102 332.41C482.79 335.723 480.162 339.655 478.369 343.983C476.577 348.311 475.654 352.95 475.654 357.635L511.327 357.635H547Z" fill="#041116"/>
<rect x="475.654" y="391.962" width="71.3462" height="16.1538" fill="#041116"/>
<path fill-rule="evenodd" clip-rule="evenodd" d="M556.452 604.277L544.525 417.538H478.259L467.596 604.29C477.59 606.934 487.932 608.706 498.538 609.523V584.462C498.538 582.163 498.887 579.888 499.563 577.765C500.24 575.641 501.231 573.712 502.481 572.087C503.731 570.462 505.215 569.173 506.848 568.294C508.482 567.414 510.232 566.962 512 566.962C513.768 566.962 515.518 567.414 517.151 568.294C518.785 569.173 520.269 570.462 521.519 572.087C522.769 573.712 523.76 575.641 524.437 577.765C525.113 579.888 525.462 582.163 525.462 584.462V609.523C536.085 608.705 546.443 606.928 556.452 604.277ZM517.385 478.115V463.308H506.615V478.115H517.385ZM506.615 530.615V515.808H517.385V530.615H506.615Z" fill="#041116"/>
<rect x="570.49" y="351.216" width="43.0769" height="5.38462" rx="2.69231" transform="rotate(-15 570.49 351.216)" fill="#041116" stroke="#041116" stroke-width="5.38462" stroke-linejoin="round"/>
<rect x="577.961" y="370.423" width="43.0769" height="5.38462" rx="2.69231" fill="#041116" stroke="#041116" stroke-width="5.38462" stroke-linejoin="round"/>
<rect x="571.883" y="388.528" width="43.0769" height="5.38461" rx="2.69231" transform="rotate(15 571.883 388.528)" fill="#041116" stroke="#041116" stroke-width="5.38462" stroke-linejoin="round"/>
<rect x="-3.29739" y="1.90375" width="43.0769" height="5.38462" rx="2.69231" transform="matrix(-0.965926 -0.258819 -0.258819 0.965926 449.472 348.523)" fill="#D9D9D9" stroke="#041116" stroke-width="5.38462" stroke-linejoin="round"/>
<rect x="-2.69231" y="2.69231" width="43.0769" height="5.38462" rx="2.69231" transform="matrix(-1 0 0 1 442 367.731)" fill="#D9D9D9" stroke="#041116" stroke-width="5.38462" stroke-linejoin="round"/>
<rect x="-1.90375" y="3.29739" width="43.0769" height="5.38462" rx="2.69231" transform="matrix(-0.965926 0.258819 0.258819 0.965926 448.078 385.836)" fill="#D9D9D9" stroke="#041116" stroke-width="5.38462" stroke-linejoin="round"/>
<path d="M256.918 743H244.543L267.074 679H281.387L303.949 743H291.574L274.48 692.125H273.98L256.918 743ZM257.324 717.906H291.074V727.219H257.324V717.906ZM364.152 700.594H352.465C352.132 698.677 351.517 696.979 350.621 695.5C349.725 694 348.611 692.729 347.277 691.687C345.944 690.646 344.423 689.865 342.715 689.344C341.027 688.802 339.204 688.531 337.246 688.531C333.767 688.531 330.684 689.406 327.996 691.156C325.309 692.885 323.204 695.427 321.684 698.781C320.163 702.115 319.402 706.187 319.402 711C319.402 715.896 320.163 720.021 321.684 723.375C323.225 726.708 325.329 729.229 327.996 730.937C330.684 732.625 333.757 733.469 337.215 733.469C339.132 733.469 340.923 733.219 342.59 732.719C344.277 732.198 345.788 731.437 347.121 730.437C348.475 729.437 349.611 728.208 350.527 726.75C351.465 725.292 352.111 723.625 352.465 721.75L364.152 721.812C363.715 724.854 362.767 727.708 361.309 730.375C359.871 733.042 357.986 735.396 355.652 737.438C353.319 739.458 350.59 741.042 347.465 742.187C344.34 743.312 340.871 743.875 337.059 743.875C331.434 743.875 326.413 742.573 321.996 739.969C317.579 737.365 314.1 733.604 311.559 728.687C309.017 723.771 307.746 717.875 307.746 711C307.746 704.104 309.027 698.208 311.59 693.312C314.152 688.396 317.642 684.635 322.059 682.031C326.475 679.427 331.475 678.125 337.059 678.125C340.621 678.125 343.934 678.625 346.996 679.625C350.059 680.625 352.788 682.094 355.184 684.031C357.579 685.948 359.548 688.302 361.09 691.094C362.652 693.865 363.673 697.031 364.152 700.594ZM429.551 700.594H417.863C417.53 698.677 416.915 696.979 416.02 695.5C415.124 694 414.009 692.729 412.676 691.687C411.342 690.646 409.822 689.865 408.113 689.344C406.426 688.802 404.603 688.531 402.645 688.531C399.165 688.531 396.082 689.406 393.395 691.156C390.707 692.885 388.603 695.427 387.082 698.781C385.561 702.115 384.801 706.187 384.801 711C384.801 715.896 385.561 720.021 387.082 723.375C388.624 726.708 390.728 729.229 393.395 730.937C396.082 732.625 399.155 733.469 402.613 733.469C404.53 733.469 406.322 733.219 407.988 732.719C409.676 732.198 411.186 731.437 412.52 730.437C413.874 729.437 415.009 728.208 415.926 726.75C416.863 725.292 417.509 723.625 417.863 721.75L429.551 721.812C429.113 724.854 428.165 727.708 426.707 730.375C425.27 733.042 423.384 735.396 421.051 737.438C418.717 739.458 415.988 741.042 412.863 742.187C409.738 743.312 406.27 743.875 402.457 743.875C396.832 743.875 391.811 742.573 387.395 739.969C382.978 737.365 379.499 733.604 376.957 728.687C374.415 723.771 373.145 717.875 373.145 711C373.145 704.104 374.426 698.208 376.988 693.312C379.551 688.396 383.04 684.635 387.457 682.031C391.874 679.427 396.874 678.125 402.457 678.125C406.02 678.125 409.332 678.625 412.395 679.625C415.457 680.625 418.186 682.094 420.582 684.031C422.978 685.948 424.947 688.302 426.488 691.094C428.051 693.865 429.072 697.031 429.551 700.594ZM440.168 743V679H481.793V688.719H451.762V706.094H479.637V715.812H451.762V733.281H482.043V743H440.168ZM528.402 696.594C528.111 693.865 526.882 691.74 524.715 690.219C522.569 688.698 519.777 687.937 516.34 687.937C513.923 687.937 511.85 688.302 510.121 689.031C508.392 689.76 507.069 690.75 506.152 692C505.236 693.25 504.767 694.677 504.746 696.281C504.746 697.615 505.048 698.771 505.652 699.75C506.277 700.729 507.121 701.562 508.184 702.25C509.246 702.917 510.423 703.479 511.715 703.937C513.007 704.396 514.309 704.781 515.621 705.094L521.621 706.594C524.038 707.156 526.361 707.917 528.59 708.875C530.84 709.833 532.85 711.042 534.621 712.5C536.413 713.958 537.829 715.719 538.871 717.781C539.913 719.844 540.434 722.26 540.434 725.031C540.434 728.781 539.475 732.083 537.559 734.937C535.642 737.771 532.871 739.99 529.246 741.594C525.642 743.177 521.277 743.969 516.152 743.969C511.173 743.969 506.85 743.198 503.184 741.656C499.538 740.115 496.684 737.865 494.621 734.906C492.579 731.948 491.475 728.344 491.309 724.094H502.715C502.882 726.323 503.569 728.177 504.777 729.656C505.986 731.135 507.559 732.24 509.496 732.969C511.454 733.698 513.642 734.062 516.059 734.062C518.579 734.062 520.788 733.687 522.684 732.937C524.6 732.167 526.1 731.104 527.184 729.75C528.267 728.375 528.819 726.771 528.84 724.937C528.819 723.271 528.329 721.896 527.371 720.812C526.413 719.708 525.069 718.792 523.34 718.062C521.632 717.312 519.632 716.646 517.34 716.062L510.059 714.187C504.788 712.833 500.621 710.781 497.559 708.031C494.517 705.26 492.996 701.583 492.996 697C492.996 693.229 494.017 689.927 496.059 687.094C498.121 684.26 500.923 682.062 504.465 680.5C508.007 678.917 512.017 678.125 516.496 678.125C521.038 678.125 525.017 678.917 528.434 680.5C531.871 682.062 534.569 684.24 536.527 687.031C538.486 689.802 539.496 692.99 539.559 696.594H528.402ZM585.551 696.594C585.259 693.865 584.03 691.74 581.863 690.219C579.717 688.698 576.926 687.937 573.488 687.937C571.072 687.937 568.999 688.302 567.27 689.031C565.54 689.76 564.217 690.75 563.301 692C562.384 693.25 561.915 694.677 561.895 696.281C561.895 697.615 562.197 698.771 562.801 699.75C563.426 700.729 564.27 701.562 565.332 702.25C566.395 702.917 567.572 703.479 568.863 703.937C570.155 704.396 571.457 704.781 572.77 705.094L578.77 706.594C581.186 707.156 583.509 707.917 585.738 708.875C587.988 709.833 589.999 711.042 591.77 712.5C593.561 713.958 594.978 715.719 596.02 717.781C597.061 719.844 597.582 722.26 597.582 725.031C597.582 728.781 596.624 732.083 594.707 734.937C592.79 737.771 590.02 739.99 586.395 741.594C582.79 743.177 578.426 743.969 573.301 743.969C568.322 743.969 563.999 743.198 560.332 741.656C556.686 740.115 553.832 737.865 551.77 734.906C549.728 731.948 548.624 728.344 548.457 724.094H559.863C560.03 726.323 560.717 728.177 561.926 729.656C563.134 731.135 564.707 732.24 566.645 732.969C568.603 733.698 570.79 734.062 573.207 734.062C575.728 734.062 577.936 733.687 579.832 732.937C581.749 732.167 583.249 731.104 584.332 729.75C585.415 728.375 585.967 726.771 585.988 724.937C585.967 723.271 585.478 721.896 584.52 720.812C583.561 719.708 582.217 718.792 580.488 718.062C578.78 717.312 576.78 716.646 574.488 716.062L567.207 714.187C561.936 712.833 557.77 710.781 554.707 708.031C551.665 705.26 550.145 701.583 550.145 697C550.145 693.229 551.165 689.927 553.207 687.094C555.27 684.26 558.072 682.062 561.613 680.5C565.155 678.917 569.165 678.125 573.645 678.125C578.186 678.125 582.165 678.917 585.582 680.5C589.02 682.062 591.717 684.24 593.676 687.031C595.634 689.802 596.645 692.99 596.707 696.594H585.551ZM605.105 688.719V679H656.168V688.719H636.387V743H624.887V688.719H605.105ZM666.012 743V679H690.012C694.928 679 699.053 679.854 702.387 681.562C705.741 683.271 708.272 685.667 709.98 688.75C711.71 691.812 712.574 695.385 712.574 699.469C712.574 703.573 711.699 707.135 709.949 710.156C708.22 713.156 705.668 715.479 702.293 717.125C698.918 718.75 694.772 719.562 689.855 719.562H672.762V709.937H688.293C691.168 709.937 693.522 709.542 695.355 708.75C697.189 707.937 698.543 706.76 699.418 705.219C700.314 703.656 700.762 701.74 700.762 699.469C700.762 697.198 700.314 695.26 699.418 693.656C698.522 692.031 697.158 690.802 695.324 689.969C693.491 689.115 691.126 688.688 688.23 688.688H677.605V743H666.012ZM699.074 714L714.918 743H701.98L686.418 714H699.074ZM731.465 743H719.09L741.621 679H755.934L778.496 743H766.121L749.027 692.125H748.527L731.465 743ZM731.871 717.906H765.621V727.219H731.871V717.906Z" fill="#F6F4F2"/>
<defs>
<linearGradient id="paint0_linear_2007_205" x1="528.5" y1="-297" x2="509.5" y2="1023.5" gradientUnits="userSpaceOnUse">
<stop offset="0.244792" stop-color="#2D3A4C"/>
<stop offset="0.479167" stop-color="#031015"/>
</linearGradient>
</defs>
</svg>
