<svg width="260" height="263" viewBox="0 0 260 263" fill="none" xmlns="http://www.w3.org/2000/svg">
<path d="M258 131.5C258 203.043 200.671 261 130 261C59.3291 261 2 203.043 2 131.5C2 59.9574 59.3291 2 130 2C200.671 2 258 59.9574 258 131.5Z" stroke="white" stroke-width="4"/>
<circle cx="129.5" cy="52.5" r="7.5" fill="white"/>
<path d="M99 122V137H160V122H99Z" fill="white"/>
<path d="M107 113V120H152V113H107Z" fill="white"/>
<path d="M116 101H107V74H116V101Z" fill="white"/>
<path d="M152 101H143V74H152V101Z" fill="white"/>
<path d="M156 75.5C156 72.02 155.315 68.574 153.983 65.3589C152.651 62.1438 150.699 59.2224 148.238 56.7617C145.778 54.3009 142.856 52.3489 139.641 51.0172C136.426 49.6854 132.98 49 129.5 49C126.02 49 122.574 49.6854 119.359 51.0172C116.144 52.3489 113.222 54.3009 110.762 56.7617C108.301 59.2224 106.349 62.1438 105.017 65.3589C103.685 68.574 103 72.02 103 75.5L129.5 75.5H156Z" fill="white"/>
<rect x="103" y="101" width="53" height="12" fill="white"/>
<path fill-rule="evenodd" clip-rule="evenodd" d="M163.021 258.72L154.161 120H104.936L97.014 258.73C104.438 260.694 112.121 262.01 120 262.617V244C120 242.293 120.259 240.602 120.761 239.025C121.264 237.448 122 236.015 122.929 234.808C123.858 233.6 124.96 232.643 126.173 231.99C127.386 231.336 128.687 231 130 231C131.313 231 132.614 231.336 133.827 231.99C135.04 232.643 136.143 233.6 137.071 234.808C138 236.015 138.736 237.448 139.239 239.025C139.741 240.602 140 242.293 140 244V262.617C147.892 262.009 155.586 260.69 163.021 258.72ZM134 165V154H126V165H134ZM126 204V193H134V204H126Z" fill="white"/>
<rect x="173.449" y="70.7317" width="32" height="4" rx="2" transform="rotate(-15 173.449 70.7317)" fill="white" stroke="white" stroke-width="4" stroke-linejoin="round"/>
<rect x="179" y="85" width="32" height="4" rx="2" fill="white" stroke="white" stroke-width="4" stroke-linejoin="round"/>
<rect x="174.485" y="98.4495" width="32" height="4" rx="2" transform="rotate(15 174.485 98.4495)" fill="white" stroke="white" stroke-width="4" stroke-linejoin="round"/>
<rect x="-2.44949" y="1.41421" width="32" height="4" rx="2" transform="matrix(-0.965926 -0.258819 -0.258819 0.965926 83.5505 68.7317)" fill="#D9D9D9" stroke="white" stroke-width="4" stroke-linejoin="round"/>
<rect x="-2" y="2" width="32" height="4" rx="2" transform="matrix(-1 0 0 1 78 83)" fill="#D9D9D9" stroke="white" stroke-width="4" stroke-linejoin="round"/>
<rect x="-1.41421" y="2.44949" width="32" height="4" rx="2" transform="matrix(-0.965926 0.258819 0.258819 0.965926 82.5152 96.4495)" fill="#D9D9D9" stroke="white" stroke-width="4" stroke-linejoin="round"/>
</svg>
