<svg width="433" height="438" viewBox="0 0 433 438" fill="none" xmlns="http://www.w3.org/2000/svg">
<path d="M431 218.998C431 338.865 334.944 435.996 216.5 435.996C98.0565 435.996 2 338.865 2 218.998C2 99.1317 98.0565 2 216.5 2C334.944 2 431 99.1317 431 218.998Z" stroke="white" stroke-width="4"/>
<circle cx="215.667" cy="87.4327" r="12.4904" fill="white"/>
<path d="M164.873 203.177V228.158H266.462V203.177H164.873Z" fill="white"/>
<path d="M178.196 188.188V199.846H253.138V188.188H178.196Z" fill="white"/>
<path d="M193.185 168.204H178.196V123.238H193.185V168.204Z" fill="white"/>
<path d="M253.138 168.204H238.15V123.238H253.138V168.204Z" fill="white"/>
<path d="M259.8 125.737C259.8 119.941 258.658 114.202 256.441 108.848C254.223 103.493 250.972 98.6281 246.874 94.53C242.776 90.4319 237.911 87.1811 232.556 84.9633C227.202 82.7454 221.463 81.6039 215.667 81.6039C209.872 81.6039 204.133 82.7454 198.778 84.9633C193.424 87.1811 188.559 90.4319 184.461 94.53C180.363 98.6281 177.112 103.493 174.894 108.848C172.676 114.202 171.535 119.941 171.535 125.737L215.667 125.737H259.8Z" fill="white"/>
<rect x="171.535" y="168.204" width="88.2654" height="19.9846" fill="white"/>
<path fill-rule="evenodd" clip-rule="evenodd" d="M271.493 430.869L256.738 199.846H174.758L161.566 430.884C173.929 434.155 186.724 436.348 199.846 437.358V406.354C199.846 403.511 200.277 400.695 201.114 398.069C201.951 395.442 203.178 393.055 204.724 391.045C206.27 389.035 208.106 387.44 210.127 386.352C212.147 385.264 214.313 384.704 216.5 384.704C218.687 384.704 220.853 385.264 222.873 386.352C224.894 387.44 226.73 389.035 228.276 391.045C229.823 393.055 231.049 395.442 231.886 398.069C232.723 400.695 233.154 403.511 233.154 406.354V437.358C246.296 436.347 259.111 434.148 271.493 430.869ZM223.162 274.788V256.469H209.838V274.788H223.162ZM209.838 339.738V321.419H223.162V339.738H209.838Z" fill="white"/>
<rect x="288.86" y="117.795" width="53.2923" height="6.66154" rx="3.33077" transform="rotate(-15 288.86 117.795)" fill="white" stroke="white" stroke-width="6.66154" stroke-linejoin="round"/>
<rect x="298.104" y="141.558" width="53.2923" height="6.66154" rx="3.33077" fill="white" stroke="white" stroke-width="6.66154" stroke-linejoin="round"/>
<rect x="290.584" y="163.956" width="53.2923" height="6.66154" rx="3.33077" transform="rotate(15 290.584 163.956)" fill="white" stroke="white" stroke-width="6.66154" stroke-linejoin="round"/>
<rect x="-4.07934" y="2.35521" width="53.2923" height="6.66154" rx="3.33077" transform="matrix(-0.965926 -0.258819 -0.258819 0.965926 139.144 114.465)" fill="#D9D9D9" stroke="white" stroke-width="6.66154" stroke-linejoin="round"/>
<rect x="-3.33077" y="3.33077" width="53.2923" height="6.66154" rx="3.33077" transform="matrix(-1 0 0 1 129.9 138.227)" fill="#D9D9D9" stroke="white" stroke-width="6.66154" stroke-linejoin="round"/>
<rect x="-2.35521" y="4.07934" width="53.2923" height="6.66154" rx="3.33077" transform="matrix(-0.965926 0.258819 0.258819 0.965926 137.42 160.625)" fill="#D9D9D9" stroke="white" stroke-width="6.66154" stroke-linejoin="round"/>
</svg>
