<svg width="679" height="158" viewBox="0 0 679 158" fill="none" xmlns="http://www.w3.org/2000/svg">
<path d="M18.6875 86H2.0625L23.6563 22H44.25L65.8438 86H49.2188L34.1875 38.125H33.6875L18.6875 86ZM16.4688 60.8125H51.2188V72.5625H16.4688V60.8125ZM127.82 45.1875H112.195C111.987 43.5833 111.56 42.1354 110.914 40.8437C110.268 39.5521 109.414 38.4479 108.352 37.5312C107.289 36.6146 106.029 35.9167 104.57 35.4375C103.133 34.9375 101.539 34.6875 99.7891 34.6875C96.6849 34.6875 94.0078 35.4479 91.7578 36.9687C89.5286 38.4896 87.8099 40.6875 86.6016 43.5625C85.4141 46.4375 84.8203 49.9167 84.8203 54C84.8203 58.25 85.4245 61.8125 86.6328 64.6875C87.862 67.5417 89.5807 69.6979 91.7891 71.1562C94.0182 72.5937 96.6536 73.3125 99.6953 73.3125C101.404 73.3125 102.956 73.0937 104.352 72.6562C105.768 72.2187 107.008 71.5833 108.07 70.75C109.154 69.8958 110.039 68.8646 110.727 67.6562C111.435 66.4271 111.924 65.0417 112.195 63.5L127.82 63.5937C127.549 66.4271 126.727 69.2187 125.352 71.9687C123.997 74.7187 122.133 77.2292 119.758 79.5C117.383 81.75 114.487 83.5417 111.07 84.875C107.674 86.2083 103.779 86.875 99.3828 86.875C93.5911 86.875 88.4036 85.6042 83.8203 83.0625C79.2578 80.5 75.6536 76.7708 73.0078 71.875C70.362 66.9792 69.0391 61.0208 69.0391 54C69.0391 46.9583 70.3828 40.9896 73.0703 36.0937C75.7578 31.1979 79.3932 27.4792 83.9766 24.9375C88.5599 22.3958 93.6953 21.125 99.3828 21.125C103.258 21.125 106.841 21.6667 110.133 22.75C113.424 23.8125 116.32 25.375 118.82 27.4375C121.32 29.4792 123.352 31.9896 124.914 34.9688C126.477 37.9479 127.445 41.3542 127.82 45.1875ZM194.766 45.1875H179.141C178.932 43.5833 178.505 42.1354 177.859 40.8437C177.214 39.5521 176.359 38.4479 175.297 37.5312C174.234 36.6146 172.974 35.9167 171.516 35.4375C170.078 34.9375 168.484 34.6875 166.734 34.6875C163.63 34.6875 160.953 35.4479 158.703 36.9687C156.474 38.4896 154.755 40.6875 153.547 43.5625C152.359 46.4375 151.766 49.9167 151.766 54C151.766 58.25 152.37 61.8125 153.578 64.6875C154.807 67.5417 156.526 69.6979 158.734 71.1562C160.964 72.5937 163.599 73.3125 166.641 73.3125C168.349 73.3125 169.901 73.0937 171.297 72.6562C172.714 72.2187 173.953 71.5833 175.016 70.75C176.099 69.8958 176.984 68.8646 177.672 67.6562C178.38 66.4271 178.87 65.0417 179.141 63.5L194.766 63.5937C194.495 66.4271 193.672 69.2187 192.297 71.9687C190.943 74.7187 189.078 77.2292 186.703 79.5C184.328 81.75 181.432 83.5417 178.016 84.875C174.62 86.2083 170.724 86.875 166.328 86.875C160.536 86.875 155.349 85.6042 150.766 83.0625C146.203 80.5 142.599 76.7708 139.953 71.875C137.307 66.9792 135.984 61.0208 135.984 54C135.984 46.9583 137.328 40.9896 140.016 36.0937C142.703 31.1979 146.339 27.4792 150.922 24.9375C155.505 22.3958 160.641 21.125 166.328 21.125C170.203 21.125 173.786 21.6667 177.078 22.75C180.37 23.8125 183.266 25.375 185.766 27.4375C188.266 29.4792 190.297 31.9896 191.859 34.9688C193.422 37.9479 194.391 41.3542 194.766 45.1875ZM203.617 86V22H248.242V34.5625H219.086V47.6875H245.961V60.2812H219.086V73.4375H248.242V86H203.617ZM292.523 41.1875C292.315 38.8958 291.388 37.1146 289.742 35.8438C288.117 34.5521 285.794 33.9062 282.773 33.9062C280.773 33.9062 279.107 34.1667 277.773 34.6875C276.44 35.2083 275.44 35.9271 274.773 36.8438C274.107 37.7396 273.763 38.7708 273.742 39.9375C273.701 40.8958 273.888 41.7396 274.305 42.4687C274.742 43.1979 275.367 43.8437 276.18 44.4062C277.013 44.9479 278.013 45.4271 279.18 45.8437C280.346 46.2604 281.659 46.625 283.117 46.9375L288.617 48.1875C291.784 48.875 294.576 49.7917 296.992 50.9375C299.43 52.0833 301.471 53.4479 303.117 55.0312C304.784 56.6146 306.044 58.4375 306.898 60.5C307.753 62.5625 308.19 64.875 308.211 67.4375C308.19 71.4792 307.169 74.9479 305.148 77.8437C303.128 80.7396 300.221 82.9583 296.43 84.5C292.659 86.0417 288.107 86.8125 282.773 86.8125C277.419 86.8125 272.753 86.0104 268.773 84.4062C264.794 82.8021 261.701 80.3646 259.492 77.0937C257.284 73.8229 256.148 69.6875 256.086 64.6875H270.898C271.023 66.75 271.576 68.4688 272.555 69.8438C273.534 71.2188 274.878 72.2604 276.586 72.9687C278.315 73.6771 280.315 74.0312 282.586 74.0312C284.669 74.0312 286.44 73.75 287.898 73.1875C289.378 72.625 290.513 71.8437 291.305 70.8437C292.096 69.8437 292.503 68.6979 292.523 67.4062C292.503 66.1979 292.128 65.1667 291.398 64.3125C290.669 63.4375 289.544 62.6875 288.023 62.0625C286.523 61.4167 284.607 60.8229 282.273 60.2812L275.586 58.7187C270.044 57.4479 265.68 55.3958 262.492 52.5625C259.305 49.7083 257.721 45.8542 257.742 41C257.721 37.0417 258.784 33.5729 260.93 30.5937C263.076 27.6146 266.044 25.2917 269.836 23.625C273.628 21.9583 277.951 21.125 282.805 21.125C287.763 21.125 292.065 21.9687 295.711 23.6562C299.378 25.3229 302.221 27.6667 304.242 30.6875C306.263 33.7083 307.294 37.2083 307.336 41.1875H292.523ZM350.617 41.1875C350.409 38.8958 349.482 37.1146 347.836 35.8438C346.211 34.5521 343.888 33.9062 340.867 33.9062C338.867 33.9062 337.201 34.1667 335.867 34.6875C334.534 35.2083 333.534 35.9271 332.867 36.8438C332.201 37.7396 331.857 38.7708 331.836 39.9375C331.794 40.8958 331.982 41.7396 332.398 42.4687C332.836 43.1979 333.461 43.8437 334.273 44.4062C335.107 44.9479 336.107 45.4271 337.273 45.8437C338.44 46.2604 339.753 46.625 341.211 46.9375L346.711 48.1875C349.878 48.875 352.669 49.7917 355.086 50.9375C357.523 52.0833 359.565 53.4479 361.211 55.0312C362.878 56.6146 364.138 58.4375 364.992 60.5C365.846 62.5625 366.284 64.875 366.305 67.4375C366.284 71.4792 365.263 74.9479 363.242 77.8437C361.221 80.7396 358.315 82.9583 354.523 84.5C350.753 86.0417 346.201 86.8125 340.867 86.8125C335.513 86.8125 330.846 86.0104 326.867 84.4062C322.888 82.8021 319.794 80.3646 317.586 77.0937C315.378 73.8229 314.242 69.6875 314.18 64.6875H328.992C329.117 66.75 329.669 68.4688 330.648 69.8438C331.628 71.2188 332.971 72.2604 334.68 72.9687C336.409 73.6771 338.409 74.0312 340.68 74.0312C342.763 74.0312 344.534 73.75 345.992 73.1875C347.471 72.625 348.607 71.8437 349.398 70.8437C350.19 69.8437 350.596 68.6979 350.617 67.4062C350.596 66.1979 350.221 65.1667 349.492 64.3125C348.763 63.4375 347.638 62.6875 346.117 62.0625C344.617 61.4167 342.701 60.8229 340.367 60.2812L333.68 58.7187C328.138 57.4479 323.773 55.3958 320.586 52.5625C317.398 49.7083 315.815 45.8542 315.836 41C315.815 37.0417 316.878 33.5729 319.023 30.5937C321.169 27.6146 324.138 25.2917 327.93 23.625C331.721 21.9583 336.044 21.125 340.898 21.125C345.857 21.125 350.159 21.9687 353.805 23.6562C357.471 25.3229 360.315 27.6667 362.336 30.6875C364.357 33.7083 365.388 37.2083 365.43 41.1875H350.617ZM389.586 22V86H374.117V22H389.586ZM399.297 86V22H425.984C430.776 22 434.786 22.6771 438.016 24.0312C441.266 25.3854 443.703 27.2812 445.328 29.7187C446.974 32.1562 447.797 34.9792 447.797 38.1875C447.797 40.625 447.286 42.8021 446.266 44.7187C445.245 46.6146 443.839 48.1875 442.047 49.4375C440.255 50.6875 438.182 51.5625 435.828 52.0625V52.6875C438.411 52.8125 440.797 53.5104 442.984 54.7812C445.193 56.0521 446.964 57.8229 448.297 60.0937C449.63 62.3437 450.297 65.0104 450.297 68.0937C450.297 71.5312 449.422 74.6042 447.672 77.3125C445.922 80 443.391 82.125 440.078 83.6875C436.766 85.2292 432.745 86 428.016 86H399.297ZM414.766 73.5312H424.328C427.682 73.5312 430.151 72.8958 431.734 71.625C433.339 70.3542 434.141 68.5833 434.141 66.3125C434.141 64.6667 433.755 63.25 432.984 62.0625C432.214 60.8542 431.12 59.9271 429.703 59.2813C428.286 58.6146 426.589 58.2812 424.609 58.2812H414.766V73.5312ZM414.766 48.3125H423.328C425.016 48.3125 426.516 48.0312 427.828 47.4687C429.141 46.9062 430.161 46.0937 430.891 45.0312C431.641 43.9687 432.016 42.6875 432.016 41.1875C432.016 39.0417 431.255 37.3542 429.734 36.125C428.214 34.8958 426.161 34.2813 423.578 34.2813H414.766V48.3125ZM473.203 22V86H457.734V22H473.203ZM482.914 86V22H498.383V73.4375H525.008V86H482.914ZM548.484 22V86H533.016V22H548.484ZM556.102 34.5625V22H610.195V34.5625H590.789V86H575.539V34.5625H556.102ZM614.563 22H631.844L645.375 48.7812H645.938L659.469 22H676.75L653.344 64.625V86H637.969V64.625L614.563 22Z" fill="#F6F4F2"/>
<path d="M6.9375 157V109H33.7266V111.719H9.86719V131.617H31.5V134.336H9.86719V157H6.9375ZM83.7891 133C83.7891 137.953 82.9297 142.281 81.2109 145.984C79.4922 149.672 77.1016 152.539 74.0391 154.586C70.9922 156.633 67.4766 157.656 63.4922 157.656C59.4922 157.656 55.9609 156.633 52.8984 154.586C49.8516 152.523 47.4688 149.648 45.75 145.961C44.0313 142.258 43.1719 137.937 43.1719 133C43.1719 128.047 44.0313 123.727 45.75 120.039C47.4844 116.352 49.875 113.484 52.9219 111.437C55.9688 109.375 59.4922 108.344 63.4922 108.344C67.4766 108.344 70.9922 109.367 74.0391 111.414C77.1016 113.461 79.4922 116.336 81.2109 120.039C82.9297 123.727 83.7891 128.047 83.7891 133ZM80.9297 133C80.9297 128.547 80.1797 124.688 78.6797 121.422C77.1953 118.156 75.1406 115.633 72.5156 113.852C69.8906 112.055 66.8828 111.156 63.4922 111.156C60.1016 111.156 57.0938 112.047 54.4688 113.828C51.8438 115.594 49.7813 118.117 48.2813 121.398C46.7969 124.664 46.0547 128.531 46.0547 133C46.0547 137.422 46.7891 141.273 48.2578 144.555C49.7422 147.82 51.7969 150.352 54.4219 152.148C57.0469 153.945 60.0703 154.844 63.4922 154.844C66.8828 154.844 69.8906 153.953 72.5156 152.172C75.1406 150.375 77.1953 147.844 78.6797 144.578C80.1797 141.312 80.9297 137.453 80.9297 133ZM95.2383 157V109H110.027C113.059 109 115.668 109.594 117.855 110.781C120.043 111.969 121.723 113.617 122.895 115.727C124.066 117.82 124.652 120.258 124.652 123.039C124.652 125.789 124.066 128.211 122.895 130.305C121.723 132.383 120.043 134.008 117.855 135.18C115.684 136.352 113.082 136.937 110.051 136.937H96.8086V134.195H109.98C112.449 134.195 114.559 133.734 116.309 132.812C118.059 131.891 119.402 130.602 120.34 128.945C121.277 127.273 121.746 125.305 121.746 123.039C121.746 120.758 121.277 118.773 120.34 117.086C119.402 115.383 118.051 114.062 116.285 113.125C114.535 112.187 112.426 111.719 109.957 111.719H98.168V157H95.2383ZM114.949 135.25L126.762 157H123.387L111.645 135.25H114.949ZM151.734 111.719V109H185.367V111.719H170.016V157H167.086V111.719H151.734ZM196.043 157V109H198.973V131.617H227.895V109H230.824V157H227.895V134.336H198.973V157H196.043ZM244.705 157V109H271.424V111.719H247.635V131.617H269.994V134.336H247.635V154.281H271.986V157H244.705ZM305.063 109V157H302.133V109H305.063ZM355.635 109V157H352.775L322.166 114.32H321.885V157H318.955V109H321.838L352.447 151.727H352.729V109H355.635ZM366.299 111.719V109H399.932V111.719H384.58V157H381.65V111.719H366.299ZM410.607 157V109H437.326V111.719H413.537V131.617H435.896V134.336H413.537V154.281H437.889V157H410.607ZM449.473 157V109H464.262C467.293 109 469.902 109.594 472.09 110.781C474.277 111.969 475.957 113.617 477.129 115.727C478.301 117.82 478.887 120.258 478.887 123.039C478.887 125.789 478.301 128.211 477.129 130.305C475.957 132.383 474.277 134.008 472.09 135.18C469.918 136.352 467.316 136.937 464.285 136.937H451.043V134.195H464.215C466.684 134.195 468.793 133.734 470.543 132.812C472.293 131.891 473.637 130.602 474.574 128.945C475.512 127.273 475.98 125.305 475.98 123.039C475.98 120.758 475.512 118.773 474.574 117.086C473.637 115.383 472.285 114.062 470.52 113.125C468.77 112.187 466.66 111.719 464.191 111.719H452.402V157H449.473ZM469.184 135.25L480.996 157H477.621L465.879 135.25H469.184ZM527.273 109V157H524.414L493.805 114.32H493.523V157H490.594V109H493.477L524.086 151.727H524.367V109H527.273ZM541.125 157V109H567.844V111.719H544.055V131.617H566.414V134.336H544.055V154.281H568.406V157H541.125ZM576.803 111.719V109H610.436V111.719H595.084V157H592.154V111.719H576.803Z" fill="#F6F4F2"/>
</svg>
