<svg width="400" height="400" viewBox="0 0 400 400" fill="none" xmlns="http://www.w3.org/2000/svg">
<path d="M0 322.851C0 322.851 77.7898 317.159 106.249 256.445C134.709 195.732 129.966 77.1492 268.47 77.1492C298.837 77.1492 332.093 91.5133 350.291 104.182C441.599 167.746 398.435 298.187 291.237 264.747C291.237 264.747 330.132 263.087 330.132 211.859C330.132 160.63 265.998 153.042 256.137 195.731C249.112 226.143 253.291 318.109 387.052 322.851" fill="#223240"/>
<path d="M291.238 264.746C324.441 264.746 389.423 213.281 349.998 151.951C322.43 109.062 247.126 100.391 193.527 153.99C139.984 207.533 171.641 311.259 0.503174 322.813C7.18208 322.197 79.1274 314.313 106.25 256.445C134.71 195.731 129.966 77.1492 268.47 77.1492C298.837 77.1492 332.088 91.5117 350.291 104.186C441.599 167.746 398.436 298.187 291.238 264.746Z" fill="#364659"/>
<path d="M317.677 269.897C394.356 264.205 415.995 159.17 337.01 104.185C319.848 92.2414 289.33 78.7992 260.454 77.2906C263.072 77.1953 265.747 77.1484 268.47 77.1484C298.837 77.1484 332.087 91.5109 350.291 104.185C433.669 162.225 404.925 276.026 317.677 269.897Z" fill="#2CA9BC"/>
<path d="M387.052 322.851H209.713C189.793 314.581 181.915 285.512 192.578 242.215C204.427 194.109 227.489 168.182 261.83 162.528C282.463 159.132 298.466 165.887 308.684 172.641C289.084 162.159 262.227 169.33 256.138 195.732C249.108 226.145 253.291 318.108 387.052 322.851Z" fill="#010A0D"/>
</svg>
